<svg width="24" height="24" viewBox="0 0 24 24" fill="none" xmlns="http://www.w3.org/2000/svg">
<path d="M11.29 20.6599C11.49 20.8599 11.74 20.9499 12 20.9499C12.26 20.9499 12.51 20.8499 12.71 20.6599L20.21 13.1599C22.56 10.8099 22.56 7.10995 20.21 4.74995C17.91 2.46995 14.36 2.39995 12 4.54995C9.63997 2.39995 6.08997 2.45995 3.78997 4.74995C1.43997 7.10995 1.43997 10.8099 3.78997 13.1599L11.29 20.6599ZM5.20997 6.15995C5.99997 5.37995 6.99997 4.98995 8.00997 4.98995C9.01997 4.98995 10.02 5.37995 10.8 6.15995L11.3 6.65995C11.69 7.04995 12.32 7.04995 12.71 6.65995L13.21 6.15995C14.77 4.59995 17.23 4.59995 18.8 6.15995C20.36 7.72995 20.36 10.1799 18.8 11.7399L12.01 18.5299L5.21997 11.7399C4.84928 11.376 4.55483 10.9418 4.35383 10.4628C4.15283 9.98373 4.04931 9.46945 4.04931 8.94995C4.04931 8.43045 4.15283 7.91616 4.35383 7.43712C4.55483 6.95809 4.84928 6.52391 5.21997 6.15995H5.20997Z" fill="black"/>
</svg>
