<svg width="24" height="24" viewBox="0 0 24 24" fill="none" xmlns="http://www.w3.org/2000/svg">
<path d="M20.0951 21C19.8961 21 19.7054 20.921 19.5647 20.7803C19.4241 20.6397 19.3451 20.4489 19.3451 20.25V3.75C19.3451 3.55109 19.4241 3.36032 19.5647 3.21967C19.7054 3.07902 19.8961 3 20.0951 3C20.294 3 20.4847 3.07902 20.6254 3.21967C20.766 3.36032 20.8451 3.55109 20.8451 3.75V20.25C20.8464 20.3489 20.8279 20.447 20.7907 20.5386C20.7535 20.6302 20.6983 20.7134 20.6284 20.7833C20.5585 20.8532 20.4753 20.9084 20.3836 20.9457C20.292 20.9829 20.1939 21.0013 20.0951 21ZM16.6951 11.411C16.704 11.7595 16.6319 12.1053 16.4844 12.4211C16.3369 12.737 16.118 13.0142 15.8451 13.231L6.73505 20.321C6.40905 20.568 6.02205 20.721 5.61505 20.761H5.38505C5.03883 20.7697 4.69567 20.6942 4.38505 20.541C4.01519 20.3605 3.70338 20.0799 3.48505 19.731C3.26765 19.3833 3.15323 18.9811 3.15505 18.571V5.421C3.15613 5.02663 3.2632 4.6398 3.46505 4.301C3.67308 3.9642 3.96628 3.68825 4.31505 3.501C4.66247 3.31321 5.05437 3.22332 5.44889 3.24093C5.84342 3.25855 6.22575 3.383 6.55505 3.601L15.6751 9.681C15.9651 9.872 16.2051 10.129 16.3751 10.431C16.5545 10.7292 16.6639 11.0643 16.6951 11.411Z" fill="black"/>
</svg>
