<svg width="16" height="16" viewBox="0 0 16 16" fill="none" xmlns="http://www.w3.org/2000/svg">
<path d="M14.4999 7.00005C14.3673 7.00005 14.2402 6.94737 14.1464 6.85361C14.0526 6.75984 13.9999 6.63266 13.9999 6.50005V2.71005L9.84995 6.86005C9.75565 6.95113 9.62935 7.00153 9.49825 7.00039C9.36715 6.99925 9.24174 6.94666 9.14904 6.85396C9.05634 6.76126 9.00375 6.63585 9.00261 6.50475C9.00147 6.37365 9.05187 6.24735 9.14295 6.15305L13.2929 2.00305H9.50295C9.37034 2.00305 9.24316 1.95037 9.14939 1.85661C9.05563 1.76284 9.00295 1.63566 9.00295 1.50305C9.00295 1.37044 9.05563 1.24327 9.14939 1.1495C9.24316 1.05573 9.37034 1.00305 9.50295 1.00305H14.5029C14.6356 1.00305 14.7627 1.05573 14.8565 1.1495C14.9503 1.24327 15.0029 1.37044 15.0029 1.50305V6.50305C15.0029 6.63566 14.9503 6.76284 14.8565 6.85661C14.7627 6.95037 14.6356 7.00305 14.5029 7.00305L14.4999 7.00005ZM1.49995 9.00005C1.63256 9.00005 1.75973 9.05273 1.8535 9.1465C1.94727 9.24027 1.99995 9.36744 1.99995 9.50005V13.2901L6.14995 9.14005C6.24425 9.04897 6.37055 8.99858 6.50165 8.99971C6.63275 9.00085 6.75815 9.05344 6.85086 9.14614C6.94356 9.23885 6.99615 9.36425 6.99728 9.49535C6.99842 9.62645 6.94803 9.75275 6.85695 9.84705L2.70695 13.9971H6.49695C6.62956 13.9971 6.75673 14.0497 6.8505 14.1435C6.94427 14.2373 6.99695 14.3644 6.99695 14.4971C6.99695 14.6297 6.94427 14.7568 6.8505 14.8506C6.75673 14.9444 6.62956 14.9971 6.49695 14.9971H1.49695C1.36434 14.9971 1.23716 14.9444 1.14339 14.8506C1.04963 14.7568 0.996948 14.6297 0.996948 14.4971V9.49705C0.996948 9.36444 1.04963 9.23727 1.14339 9.1435C1.23716 9.04973 1.36434 8.99705 1.49695 8.99705L1.49995 9.00005Z" fill="black"/>
</svg>
