<svg width="16" height="16" viewBox="0 0 16 16" fill="none" xmlns="http://www.w3.org/2000/svg">
<mask id="mask0_2059_245" style="mask-type:luminance" maskUnits="userSpaceOnUse" x="0" y="0" width="16" height="16">
<path d="M0 0H16V16H0V0Z" fill="white"/>
</mask>
<g mask="url(#mask0_2059_245)">
<path fill-rule="evenodd" clip-rule="evenodd" d="M5.06 9.94004C4.77896 9.65865 4.39769 9.50039 4 9.50004H2C1.86739 9.50004 1.74021 9.44736 1.64645 9.35359C1.55268 9.25982 1.5 9.13265 1.5 9.00004V7.00004C1.5 6.86743 1.55268 6.74025 1.64645 6.64648C1.74021 6.55272 1.86739 6.50004 2 6.50004H4C4.39769 6.49969 4.77896 6.34142 5.06 6.06004L7.543 3.57804C7.58054 3.5407 7.62829 3.51532 7.68024 3.50509C7.73219 3.49487 7.786 3.50026 7.83488 3.52058C7.88377 3.54091 7.92554 3.57526 7.95493 3.6193C7.98432 3.66334 8 3.71509 8 3.76804V12.232C8 12.285 7.98432 12.3367 7.95493 12.3808C7.92554 12.4248 7.88377 12.4592 7.83488 12.4795C7.786 12.4998 7.73219 12.5052 7.68024 12.495C7.62829 12.4848 7.58054 12.4594 7.543 12.422L5.06 9.94004ZM2 5.00004H4L6.482 2.51804C6.72926 2.27084 7.04426 2.10251 7.38717 2.03432C7.73009 1.96613 8.08552 2.00114 8.40854 2.13493C8.73156 2.26872 9.00766 2.49528 9.20193 2.78596C9.39621 3.07665 9.49994 3.41841 9.5 3.76804V12.232C9.49994 12.5817 9.39621 12.9234 9.20193 13.2141C9.00766 13.5048 8.73156 13.7314 8.40854 13.8651C8.08552 13.9989 7.73009 14.0339 7.38717 13.9658C7.04426 13.8976 6.72926 13.7292 6.482 13.482L4 11H2C1.46957 11 0.960859 10.7893 0.585786 10.4143C0.210714 10.0392 0 9.53047 0 9.00004V7.00004C0 6.4696 0.210714 5.9609 0.585786 5.58582C0.960859 5.21075 1.46957 5.00004 2 5.00004ZM14.162 13.103C13.897 13.422 13.419 13.419 13.126 13.127C12.834 12.834 12.838 12.361 13.095 12.037C14.0072 10.8894 14.5025 9.46602 14.5 8.00004C14.5025 6.53406 14.0072 5.11067 13.095 3.96304C12.838 3.63904 12.834 3.16604 13.126 2.87304C13.419 2.58104 13.897 2.57904 14.162 2.89704C15.3524 4.33084 16.0028 6.13647 16 8.00004C16 9.94004 15.31 11.718 14.162 13.103ZM12.024 10.968C11.778 11.301 11.298 11.298 11.005 11.005C10.712 10.712 10.721 10.241 10.945 9.89204C11.3075 9.32759 11.5001 8.67086 11.5 8.00004C11.5 7.30304 11.296 6.65304 10.945 6.10804C10.721 5.76004 10.712 5.28804 11.005 4.99504C11.298 4.70204 11.778 4.69904 12.025 5.03204C12.637 5.86204 13 6.89004 13 8.00004C13.0015 9.06845 12.6593 10.109 12.024 10.968Z" fill="black"/>
</g>
</svg>
